<svg width="1024" height="1024" xmlns="http://www.w3.org/2000/svg" xml:space="preserve"
     enable-background="new 0 0 1024 1024" version="1.1">
    <g>
        <path id="1"
              d="m267.4148,39.59941c33.71985,-9.29698 69.00661,-12.93221 103.95909,-11.40709c60.44085,1.56691 119.50281,17.7165 175.74435,39.08912c8.31506,1.96386 16.96439,0.5223 25.42569,0.83568c49.91123,-1.08639 99.73889,5.0141 148.43837,15.62729c19.45055,3.59344 38.29522,9.65215 56.95187,16.10781c17.65382,5.0141 34.07502,13.30827 51.08119,20.05642c38.46236,17.57026 75.52494,39.54875 106.02741,69.13196c19.40876,19.22073 27.64025,49.91123 16.90171,75.56673c-14.77071,31.33815 -40.42621,55.90726 -67.77397,76.4233c-56.01172,42.55721 -122.7202,70.6153 -192.12375,81.7299c-31.86045,5.20213 -63.9925,8.85825 -96.2708,10.25802c-25.80174,26.53297 -57.51595,48.407 -93.3668,58.7068c-18.32237,6.39298 -37.75203,11.44887 -57.30703,9.5268c-7.08242,-0.83568 -15.25123,-6.49744 -14.0186,-14.49912c1.16996,-10.78032 3.84415,-21.39351 7.33313,-31.63064c10.63408,-25.71818 23.5454,-50.41264 36.60296,-74.96086c-45.35675,-10.06999 -92.07149,-12.80686 -138.41016,-10.90568c-55.30139,3.76058 -110.70724,22.06206 -153.72407,57.76666c-31.79778,26.82546 -57.22346,61.86151 -70.57351,101.41025c-8.81647,26.57475 -4.01128,55.15514 1.75494,81.83436c5.66176,29.81303 14.31109,59.25 27.97452,86.43062c-0.33427,-9.38055 -3.05025,-18.40594 -4.28288,-27.66114c-4.99321,-36.39404 -1.65048,-73.93714 9.65215,-108.91052c11.57422,-38.67128 35.89263,-72.51648 64.38945,-100.63725c19.0327,33.61539 38.58771,66.93829 57.99647,100.36565c11.23995,19.93106 22.22919,39.98748 34.34661,59.41713c19.28341,33.53182 38.58771,67.06364 58.37253,100.32387c-70.71976,0.25071 -141.43952,0.12535 -212.13839,0.20892c7.04064,15.41837 15.79443,30.16819 26.03156,43.70627c136.69701,0.16714 273.41492,0.06268 410.13282,-0.14624c-37.33418,61.23475 -72.01507,124.07818 -108.9523,185.52185c16.88082,1.67137 33.86609,2.59062 50.83048,1.75494c40.48889,-70.82422 82.10595,-141.00078 122.95001,-211.61608c27.89095,-48.49056 57.03543,-96.24991 84.23695,-145.13742c10.17445,15.68997 18.15524,32.69614 28.37147,48.3861c25.61371,44.60463 51.26921,89.18838 77.7604,133.2916c9.29698,-13.91414 18.00899,-28.2879 25.55104,-43.24665c-30.20998,-53.48378 -61.25564,-106.52882 -91.71632,-159.88724c-22.18741,-38.94287 -45.14783,-77.4888 -66.41599,-116.95398c79.45266,-14.18574 154.95671,-50.45442 215.83629,-103.45768c12.18009,30.83674 22.52168,62.55095 28.18344,95.28887c6.97796,44.04055 10.82211,88.93767 6.16317,133.45874c-6.66458,87.0156 -41.2619,171.02273 -94.9546,239.54882c-46.12976,59.29178 -107.17647,106.77952 -175.68167,137.55359c-59.91854,26.65832 -125.72866,40.23819 -191.32985,38.04451c-35.41211,-2.61151 -71.01225,-6.89439 -104.96191,-17.7165c-68.33806,-19.8266 -132.03807,-56.0744 -183.43264,-105.31708c-33.76163,-30.75317 -61.40188,-67.54416 -85.34423,-106.27811c-15.00053,-28.32969 -29.1027,-57.30703 -38.83841,-87.91396c-3.86504,-14.89607 -8.69111,-29.56232 -11.9085,-44.60463c-8.41952,-42.16026 -12.66061,-85.49047 -8.87914,-128.42374c4.55448,-82.85807 32.23651,-164.56707 79.78693,-232.61264c39.73677,-57.93379 93.8891,-105.37975 155.04028,-139.60101c-9.27609,-17.67472 -21.53976,-33.57361 -34.53464,-48.63681c-6.16317,-6.58101 -12.72329,-14.47823 -11.88761,-24.10948c-0.98193,-9.44323 5.53641,-19.19984 15.00053,-21.10102m442.89163,186.1904c-6.49744,15.96156 -4.01128,34.72267 4.99321,49.22179c14.2902,23.16934 47.90559,31.37993 70.8869,16.23316c19.72214,-11.51155 29.3534,-36.18512 24.04681,-58.20539c-4.72161,-23.5245 -27.7656,-41.5126 -51.66616,-40.90673c-20.8921,0.37606 -40.23819,14.60358 -48.26075,33.65717z"
              fill="#FFF"/>
        <path id="2"
              d="m249.92811,436.29861c27.68203,-14.72893 59.02018,-20.59961 89.9196,-23.73343c-6.97796,13.14113 -14.8125,25.82264 -21.97849,38.8802c-9.71483,17.40312 -20.8921,34.01234 -29.20716,52.14668c-12.34723,-22.7515 -26.63743,-44.39571 -38.73395,-67.29345z"
              fill="#FFF"/>
    </g>
</svg>